<svg width="184" height="59" viewBox="0 0 184 59" fill="none" xmlns="http://www.w3.org/2000/svg">
<g clip-path="url(#clip0_6839_5904)">
<path fill-rule="evenodd" clip-rule="evenodd" d="M46.1958 25.0904L53.5816 16.2246H47.546L42.38 22.8133V9.94922H37.9464V35.1382H42.38V27.3692L48.7307 35.1382H54.7638L46.1958 25.0904ZM80.1483 31.1278C80.7135 31.1278 81.2017 30.9245 81.588 30.6627L84.4264 34.4285C83.0712 35.2286 81.4108 35.6187 80.2135 35.6187C77.003 35.6187 73.8118 33.0965 73.8126 28.8732V20.7134H71.5352V16.2242H73.8126V11.5116H78.1183V16.2242H81.8004V20.7134H78.1183V28.8074C78.1183 30.5927 79.4452 31.1278 80.1483 31.1278ZM6.09909 15.9977H9.03784C11.0603 15.9977 12.714 17.6372 12.714 19.6576C12.714 21.683 11.0603 23.3216 9.03784 23.3216H6.09909V15.9977ZM6.09909 35.138V27.8108H9.28448L14.7983 35.138H20.4359L13.7725 26.2963C15.8492 24.8102 17.2128 22.3939 17.2128 19.6576C17.2128 15.1626 13.5467 11.5119 9.03784 11.5119H1.59607V35.138H6.09909ZM105.798 24.0279V35.1384H101.492V16.2247H105.798V16.9282C105.798 16.9282 107.34 15.7597 109.457 15.7597C114.031 15.7597 117.159 19.4687 117.159 24.0279V35.1384H112.853V24.0279C112.853 21.9433 111.416 20.1838 109.326 20.1838C107.234 20.1838 105.798 21.9433 105.798 24.0279ZM27.1289 31.0482C24.7135 31.0482 22.9453 28.6769 22.9453 25.6822C22.9453 22.6891 24.7135 20.3178 27.1289 20.3178C29.5468 20.3178 31.2515 22.6891 31.2515 25.6822C31.2515 28.6769 29.5468 31.0482 27.1289 31.0482ZM31.1855 16.2246V17.0639C29.8871 16.2396 28.7233 15.7603 27.1289 15.7603C22.2304 15.7603 18.5091 20.2128 18.5091 25.6822C18.5091 31.1524 22.2304 35.6024 27.1289 35.6024C28.7233 35.6024 29.8871 35.1256 31.1855 34.2997V35.1382H35.4912V16.2246H31.1855ZM65.677 16.2248V27.3353C65.677 29.4198 64.2407 31.1793 62.1488 31.1793C60.0587 31.1793 58.6215 29.4198 58.6215 27.3353V16.2248H54.3158V27.3353C54.3158 31.8945 57.4435 35.6027 62.0176 35.6027C64.1353 35.6027 65.677 34.4349 65.677 34.4349V35.1384H69.9827V16.2248H65.677ZM95.2927 23.2403H87.5374C88.4437 18.8103 94.4533 18.5561 95.2927 23.2403ZM82.9759 25.6816C82.9759 20.1106 86.55 15.7447 91.5338 15.7447C96.4331 15.7447 100.839 20.2123 99.7774 27.006L87.3752 27.0027C87.9412 31.3252 92.8431 33.5189 95.7835 29.1965L99.5867 31.386C97.1421 34.8434 94.2326 35.6202 91.9619 35.6202C87.4622 35.6202 82.9759 31.5394 82.9759 25.6816Z" fill="white"/>
<path fill-rule="evenodd" clip-rule="evenodd" d="M94.6256 38.6824H24.7092L30.2782 44.2343L94.6256 38.6824Z" fill="white"/>
<path fill-rule="evenodd" clip-rule="evenodd" d="M147.129 17.435V34.6183C147.129 34.9058 147.362 35.1384 147.651 35.1384H152.607C152.894 35.1384 153.128 34.9058 153.128 34.6183V17.435C153.128 17.1475 152.894 16.9149 152.607 16.9149H147.651C147.362 16.9149 147.129 17.1475 147.129 17.435ZM147.658 14.2944C148.316 14.9387 149.14 15.2613 150.129 15.2613C151.117 15.2613 151.94 14.9387 152.598 14.2944C153.257 13.6485 153.587 12.8575 153.587 11.919C153.587 10.9813 153.257 10.1895 152.598 9.54434C151.94 8.89922 151.117 8.57666 150.129 8.57666C149.14 8.57666 148.316 8.89922 147.658 9.54434C146.999 10.1895 146.67 10.9813 146.67 11.919C146.67 12.8575 146.999 13.6485 147.658 14.2944ZM138.213 34.6421L144.993 13.1847C145.07 12.9413 144.888 12.6929 144.632 12.6929H139.55C139.251 12.6929 138.989 12.893 138.911 13.1805L134.699 28.586C134.661 28.7252 134.463 28.7252 134.424 28.586L130.213 13.1805C130.135 12.893 129.873 12.6929 129.573 12.6929H124.174C123.919 12.6929 123.736 12.9413 123.813 13.1847L130.594 34.6421C130.687 34.9372 130.961 35.138 131.272 35.138H137.535C137.845 35.138 138.119 34.9372 138.213 34.6421ZM155.956 34.6183V10.6796C155.956 10.3929 156.189 10.1603 156.478 10.1603H161.434C161.722 10.1603 161.955 10.3929 161.955 10.6796V23.232C161.955 23.3953 162.167 23.4595 162.259 23.3245L166.289 17.3433C166.47 17.0758 166.772 16.9149 167.096 16.9149H173.001C173.217 16.9149 173.339 17.1625 173.207 17.3333L167.347 24.9215C167.164 25.1582 167.163 25.4882 167.346 25.7266L174.234 34.7208C174.365 34.8917 174.242 35.1384 174.027 35.1384H167.692C167.369 35.1384 167.067 34.9825 166.88 34.7217L162.257 28.2429C162.163 28.1112 161.955 28.1771 161.955 28.3388V34.6183C161.955 34.9059 161.722 35.1384 161.434 35.1384H156.478C156.189 35.1384 155.956 34.9059 155.956 34.6183ZM175.932 17.435V34.6183C175.932 34.9058 176.165 35.1384 176.454 35.1384H181.41C181.697 35.1384 181.931 34.9058 181.931 34.6183V17.435C181.931 17.1475 181.697 16.9149 181.41 16.9149H176.454C176.165 16.9149 175.932 17.1475 175.932 17.435ZM176.461 14.2944C177.119 14.9387 177.943 15.2613 178.932 15.2613C179.92 15.2613 180.742 14.9387 181.401 14.2944C182.06 13.6485 182.39 12.8575 182.39 11.919C182.39 10.9813 182.06 10.1895 181.401 9.54434C180.742 8.89922 179.92 8.57666 178.932 8.57666C177.943 8.57666 177.119 8.89922 176.461 9.54434C175.802 10.1895 175.473 10.9813 175.473 11.919C175.473 12.8575 175.802 13.6485 176.461 14.2944Z" fill="white"/>
</g>
<path d="M2.53449 58.282V51.5126H0.171143V50.0874H6.45361V51.5126H4.07839V58.282H2.53449Z" fill="white"/>
<path d="M7.58166 58.282V49.8499H9.06617V53.1277C9.25619 52.7873 9.50955 52.522 9.82625 52.332C10.1429 52.1341 10.4992 52.0351 10.8951 52.0351C11.5602 52.0351 12.0827 52.2766 12.4627 52.7596C12.8507 53.2425 13.0447 53.9353 13.0447 54.8379V58.282H11.5602V54.921C11.5602 54.4381 11.4572 54.0699 11.2514 53.8165C11.0534 53.5553 10.7763 53.4246 10.4201 53.4246C10.0163 53.4246 9.68769 53.5869 9.43433 53.9116C9.18889 54.2362 9.06617 54.6281 9.06617 55.0873V58.282H7.58166Z" fill="white"/>
<path d="M17.2484 58.4364C16.615 58.4364 16.0687 58.3057 15.6095 58.0444C15.1502 57.7832 14.794 57.411 14.5406 56.9281C14.2952 56.4451 14.1724 55.879 14.1724 55.2298C14.1724 54.6043 14.2952 54.0501 14.5406 53.5671C14.794 53.0842 15.1384 52.7041 15.5738 52.427C16.0093 52.1499 16.5041 52.0114 17.0583 52.0114C17.6126 52.0114 18.0995 52.146 18.5191 52.4152C18.9387 52.6844 19.2673 53.0604 19.5048 53.5434C19.7423 54.0184 19.8611 54.5727 19.8611 55.206V55.6336H15.6807C15.7995 56.6629 16.3656 57.1775 17.379 57.1775C18.052 57.1775 18.6458 56.8766 19.1604 56.2749L19.8017 57.3794C19.4771 57.7198 19.0931 57.9811 18.6497 58.1632C18.2064 58.3453 17.7392 58.4364 17.2484 58.4364ZM17.0465 53.2109C16.6823 53.2109 16.3814 53.3336 16.1439 53.579C15.9143 53.8245 15.7638 54.1728 15.6926 54.6241H18.3885C18.333 54.1728 18.1866 53.8245 17.949 53.579C17.7194 53.3336 17.4186 53.2109 17.0465 53.2109Z" fill="white"/>
<path d="M23.459 58.282V49.8499H24.9435V53.1277C25.1335 52.7873 25.3869 52.522 25.7036 52.332C26.0203 52.1341 26.3766 52.0351 26.7725 52.0351C27.4375 52.0351 27.9601 52.2766 28.3401 52.7596C28.7281 53.2425 28.922 53.9353 28.922 54.8379V58.282H27.4375V54.921C27.4375 54.4381 27.3346 54.0699 27.1287 53.8165C26.9308 53.5553 26.6537 53.4246 26.2974 53.4246C25.8936 53.4246 25.565 53.5869 25.3117 53.9116C25.0662 54.2362 24.9435 54.6281 24.9435 55.0873V58.282H23.459Z" fill="white"/>
<path d="M33.1257 58.4364C32.4923 58.4364 31.946 58.3057 31.4868 58.0444C31.0276 57.7832 30.6713 57.411 30.418 56.9281C30.1725 56.4451 30.0498 55.879 30.0498 55.2298C30.0498 54.6043 30.1725 54.0501 30.418 53.5671C30.6713 53.0842 31.0157 52.7041 31.4512 52.427C31.8866 52.1499 32.3815 52.0114 32.9357 52.0114C33.4899 52.0114 33.9768 52.146 34.3965 52.4152C34.8161 52.6844 35.1447 53.0604 35.3822 53.5434C35.6197 54.0184 35.7385 54.5727 35.7385 55.206V55.6336H31.5581C31.6768 56.6629 32.2429 57.1775 33.2564 57.1775C33.9293 57.1775 34.5231 56.8766 35.0378 56.2749L35.6791 57.3794C35.3545 57.7198 34.9705 57.9811 34.5271 58.1632C34.0837 58.3453 33.6166 58.4364 33.1257 58.4364ZM32.9238 53.2109C32.5596 53.2109 32.2588 53.3336 32.0212 53.579C31.7916 53.8245 31.6412 54.1728 31.5699 54.6241H34.2658C34.2104 54.1728 34.0639 53.8245 33.8264 53.579C33.5968 53.3336 33.2959 53.2109 32.9238 53.2109Z" fill="white"/>
<path d="M39.2871 58.4126C38.7804 58.4126 38.3212 58.282 37.9095 58.0207C37.5057 57.7515 37.1811 57.3794 36.9356 56.9043C36.6981 56.4214 36.5793 55.8632 36.5793 55.2298C36.5793 54.5964 36.6981 54.0422 36.9356 53.5671C37.1732 53.0842 37.4978 52.7081 37.9095 52.4389C38.3212 52.1697 38.7804 52.0351 39.2871 52.0351C39.7146 52.0351 40.0986 52.142 40.4391 52.3558C40.7795 52.5616 41.0289 52.8427 41.1873 53.199L41.3179 52.1776H42.5887V58.282H41.3179L41.1992 57.2844C41.0329 57.6248 40.7795 57.898 40.4391 58.1038C40.0986 58.3097 39.7146 58.4126 39.2871 58.4126ZM39.6196 57.0468C40.0551 57.0468 40.4153 56.8806 40.7004 56.5481C40.9854 56.2076 41.1279 55.7682 41.1279 55.2298C41.1279 54.6914 40.9854 54.252 40.7004 53.9116C40.4153 53.5711 40.0551 53.4009 39.6196 53.4009C39.1763 53.4009 38.8121 53.5711 38.527 53.9116C38.2499 54.252 38.1114 54.6914 38.1114 55.2298C38.1114 55.7682 38.2499 56.2076 38.527 56.5481C38.8121 56.8806 39.1763 57.0468 39.6196 57.0468Z" fill="white"/>
<path d="M44.2074 58.282V52.1776H45.4782L45.5969 53.2227C45.7553 52.8506 45.973 52.5616 46.2501 52.3558C46.5272 52.142 46.836 52.0351 47.1765 52.0351C47.5565 52.0351 47.893 52.146 48.1859 52.3677L47.794 53.8165C47.5169 53.6186 47.2358 53.5196 46.9508 53.5196C46.5708 53.5196 46.266 53.6819 46.0364 54.0066C45.8068 54.3312 45.692 54.7548 45.692 55.2773V58.282H44.2074Z" fill="white"/>
<path d="M51.5898 58.4126C50.2755 58.4126 49.6184 57.6565 49.6184 56.1443V53.4603H48.6446V52.1776H49.6184V50.6575H51.1029V52.1776H53.0625V53.4603H51.1029V56.073C51.1029 56.7143 51.3484 57.035 51.8392 57.035C52.1797 57.035 52.5241 56.9004 52.8725 56.6312L53.1575 57.9969C52.7299 58.274 52.2074 58.4126 51.5898 58.4126Z" fill="white"/>
<path d="M59.3019 58.4364C58.716 58.4364 58.1895 58.3018 57.7224 58.0326C57.2632 57.7555 56.899 57.3754 56.6298 56.8925C56.3606 56.4095 56.226 55.8553 56.226 55.2298C56.226 54.6043 56.3606 54.0501 56.6298 53.5671C56.899 53.0842 57.2632 52.7041 57.7224 52.427C58.1895 52.1499 58.716 52.0114 59.3019 52.0114C59.8799 52.0114 60.3985 52.1499 60.8577 52.427C61.3248 52.7041 61.693 53.0842 61.9621 53.5671C62.2313 54.0501 62.3659 54.6043 62.3659 55.2298C62.3659 55.8553 62.2313 56.4095 61.9621 56.8925C61.693 57.3754 61.3248 57.7555 60.8577 58.0326C60.3985 58.3018 59.8799 58.4364 59.3019 58.4364ZM59.3019 57.0587C59.7532 57.0587 60.1213 56.8925 60.4064 56.5599C60.6914 56.2274 60.8339 55.784 60.8339 55.2298C60.8339 54.6756 60.6914 54.2322 60.4064 53.8997C60.1213 53.5592 59.7532 53.389 59.3019 53.389C58.8506 53.389 58.4785 53.5592 58.1855 53.8997C57.9005 54.2322 57.758 54.6756 57.758 55.2298C57.758 55.784 57.9005 56.2274 58.1855 56.5599C58.4785 56.8925 58.8506 57.0587 59.3019 57.0587Z" fill="white"/>
<path d="M63.8743 58.282V53.4603H62.8767V52.1776H63.8743V52.0114C63.8743 51.275 64.0564 50.705 64.4206 50.3012C64.7848 49.8895 65.2994 49.6836 65.9645 49.6836C66.5266 49.6836 67.0254 49.8143 67.4609 50.0756L67.0808 51.3344C66.8117 51.1048 66.5029 50.99 66.1545 50.99C65.6003 50.99 65.3232 51.3344 65.3232 52.0232V52.1776H67.164V53.4603H65.3588V58.282H63.8743Z" fill="white"/>
<path d="M69.9732 58.282L72.8828 50.0874H74.688L77.5976 58.282H75.9706L75.3887 56.5362H72.0752L71.5052 58.282H69.9732ZM72.5146 55.206H74.9611L73.726 51.4651L72.5146 55.206Z" fill="white"/>
<path d="M80.7077 58.4364C80.2089 58.4364 79.7378 58.3493 79.2944 58.1751C78.859 57.993 78.4868 57.7357 78.1781 57.4031L78.8075 56.2987C79.3142 56.9083 79.9278 57.2131 80.6483 57.2131C80.9571 57.2131 81.1946 57.1617 81.3609 57.0587C81.535 56.9479 81.6221 56.7974 81.6221 56.6074C81.6221 56.4332 81.5509 56.2868 81.4084 56.168C81.2659 56.0493 81.0283 55.9503 80.6958 55.8711L80.102 55.7286C78.9936 55.4673 78.4393 54.8814 78.4393 53.9709C78.4393 53.5909 78.5383 53.2544 78.7362 52.9615C78.9342 52.6606 79.2073 52.427 79.5557 52.2608C79.912 52.0945 80.3197 52.0114 80.7789 52.0114C81.2065 52.0114 81.6063 52.0866 81.9784 52.237C82.3585 52.3795 82.6752 52.5814 82.9285 52.8427L82.3228 53.9472C81.8795 53.4721 81.3609 53.2346 80.7671 53.2346C80.5058 53.2346 80.296 53.29 80.1376 53.4009C79.9872 53.5117 79.912 53.6582 79.912 53.8403C79.912 53.9986 79.9753 54.1293 80.102 54.2322C80.2287 54.3272 80.4543 54.4143 80.7789 54.4935L81.349 54.636C81.919 54.7785 82.3545 55.0121 82.6554 55.3367C82.9641 55.6613 83.1185 56.0572 83.1185 56.5243C83.1185 57.1023 82.8968 57.5654 82.4535 57.9138C82.018 58.2622 81.4361 58.4364 80.7077 58.4364Z" fill="white"/>
<path d="M85.0141 51.4413C84.7528 51.4413 84.5311 51.3542 84.349 51.18C84.1748 50.9979 84.0877 50.7802 84.0877 50.5269C84.0877 50.2814 84.1748 50.0716 84.349 49.8974C84.5311 49.7153 84.7528 49.6243 85.0141 49.6243C85.2753 49.6243 85.4931 49.7153 85.6673 49.8974C85.8494 50.0716 85.9404 50.2814 85.9404 50.5269C85.9404 50.7802 85.8494 50.9979 85.6673 51.18C85.4931 51.3542 85.2753 51.4413 85.0141 51.4413ZM84.2778 58.282V52.1776H85.7623V58.282H84.2778Z" fill="white"/>
<path d="M89.7142 58.4126C89.2075 58.4126 88.7483 58.282 88.3366 58.0207C87.9328 57.7515 87.6082 57.3794 87.3628 56.9043C87.1252 56.4214 87.0065 55.8632 87.0065 55.2298C87.0065 54.5964 87.1252 54.0422 87.3628 53.5671C87.6003 53.0842 87.9249 52.7081 88.3366 52.4389C88.7483 52.1697 89.2075 52.0351 89.7142 52.0351C90.1418 52.0351 90.5258 52.142 90.8662 52.3558C91.2067 52.5616 91.4561 52.8427 91.6144 53.199L91.745 52.1776H93.0158V58.282H91.745L91.6263 57.2844C91.46 57.6248 91.2067 57.898 90.8662 58.1038C90.5258 58.3097 90.1418 58.4126 89.7142 58.4126ZM90.0468 57.0468C90.4822 57.0468 90.8425 56.8806 91.1275 56.5481C91.4125 56.2076 91.555 55.7682 91.555 55.2298C91.555 54.6914 91.4125 54.252 91.1275 53.9116C90.8425 53.5711 90.4822 53.4009 90.0468 53.4009C89.6034 53.4009 89.2392 53.5711 88.9542 53.9116C88.6771 54.252 88.5385 54.6914 88.5385 55.2298C88.5385 55.7682 88.6771 56.2076 88.9542 56.5481C89.2392 56.8806 89.6034 57.0468 90.0468 57.0468Z" fill="white"/>
<path d="M94.6346 58.282V52.1776H95.9053L96.0241 53.1871C96.2141 52.8308 96.4793 52.5498 96.8198 52.3439C97.1602 52.138 97.5403 52.0351 97.9599 52.0351C98.617 52.0351 99.1356 52.2766 99.5157 52.7596C99.9036 53.2425 100.098 53.9313 100.098 54.826V58.282H98.6131V54.921C98.6131 54.4381 98.5101 54.0699 98.3043 53.8165C98.1064 53.5553 97.8292 53.4246 97.473 53.4246C97.0692 53.4246 96.7406 53.5869 96.4872 53.9116C96.2418 54.2362 96.1191 54.6281 96.1191 55.0873V58.282H94.6346Z" fill="white"/>
<path d="M106.702 58.4364C106.069 58.4364 105.522 58.3057 105.063 58.0444C104.604 57.7832 104.248 57.411 103.994 56.9281C103.749 56.4451 103.626 55.879 103.626 55.2298C103.626 54.6043 103.749 54.0501 103.994 53.5671C104.248 53.0842 104.592 52.7041 105.027 52.427C105.463 52.1499 105.958 52.0114 106.512 52.0114C107.066 52.0114 107.553 52.146 107.973 52.4152C108.392 52.6844 108.721 53.0604 108.958 53.5434C109.196 54.0184 109.315 54.5727 109.315 55.206V55.6336H105.134C105.253 56.6629 105.819 57.1775 106.833 57.1775C107.506 57.1775 108.099 56.8766 108.614 56.2749L109.255 57.3794C108.931 57.7198 108.547 57.9811 108.103 58.1632C107.66 58.3453 107.193 58.4364 106.702 58.4364ZM106.5 53.2109C106.136 53.2109 105.835 53.3336 105.598 53.579C105.368 53.8245 105.217 54.1728 105.146 54.6241H107.842C107.787 54.1728 107.64 53.8245 107.403 53.579C107.173 53.3336 106.872 53.2109 106.5 53.2109Z" fill="white"/>
<path d="M110.512 58.282V52.1776H111.783L111.901 53.1871C112.091 52.8308 112.357 52.5498 112.697 52.3439C113.038 52.138 113.418 52.0351 113.837 52.0351C114.494 52.0351 115.013 52.2766 115.393 52.7596C115.781 53.2425 115.975 53.9313 115.975 54.826V58.282H114.49V54.921C114.49 54.4381 114.387 54.0699 114.182 53.8165C113.984 53.5553 113.707 53.4246 113.35 53.4246C112.947 53.4246 112.618 53.5869 112.365 53.9116C112.119 54.2362 111.996 54.6281 111.996 55.0873V58.282H110.512Z" fill="white"/>
<path d="M119.704 58.4126C118.389 58.4126 117.732 57.6565 117.732 56.1443V53.4603H116.758V52.1776H117.732V50.6575H119.217V52.1776H121.176V53.4603H119.217V56.073C119.217 56.7143 119.462 57.035 119.953 57.035C120.293 57.035 120.638 56.9004 120.986 56.6312L121.271 57.9969C120.844 58.274 120.321 58.4126 119.704 58.4126Z" fill="white"/>
<path d="M124.992 58.4364C124.358 58.4364 123.812 58.3057 123.353 58.0444C122.894 57.7832 122.537 57.411 122.284 56.9281C122.039 56.4451 121.916 55.879 121.916 55.2298C121.916 54.6043 122.039 54.0501 122.284 53.5671C122.537 53.0842 122.882 52.7041 123.317 52.427C123.753 52.1499 124.247 52.0114 124.802 52.0114C125.356 52.0114 125.843 52.146 126.262 52.4152C126.682 52.6844 127.011 53.0604 127.248 53.5434C127.486 54.0184 127.604 54.5727 127.604 55.206V55.6336H123.424C123.543 56.6629 124.109 57.1775 125.122 57.1775C125.795 57.1775 126.389 56.8766 126.904 56.2749L127.545 57.3794C127.22 57.7198 126.836 57.9811 126.393 58.1632C125.95 58.3453 125.483 58.4364 124.992 58.4364ZM124.79 53.2109C124.426 53.2109 124.125 53.3336 123.887 53.579C123.658 53.8245 123.507 54.1728 123.436 54.6241H126.132C126.076 54.1728 125.93 53.8245 125.692 53.579C125.463 53.3336 125.162 53.2109 124.79 53.2109Z" fill="white"/>
<path d="M128.802 58.282V52.1776H130.072L130.191 53.2227C130.349 52.8506 130.567 52.5616 130.844 52.3558C131.121 52.142 131.43 52.0351 131.771 52.0351C132.151 52.0351 132.487 52.146 132.78 52.3677L132.388 53.8165C132.111 53.6186 131.83 53.5196 131.545 53.5196C131.165 53.5196 130.86 53.6819 130.631 54.0066C130.401 54.3312 130.286 54.7548 130.286 55.2773V58.282H128.802Z" fill="white"/>
<path d="M136.184 58.4126C134.87 58.4126 134.213 57.6565 134.213 56.1443V53.4603H133.239V52.1776H134.213V50.6575H135.697V52.1776H137.657V53.4603H135.697V56.073C135.697 56.7143 135.943 57.035 136.433 57.035C136.774 57.035 137.118 56.9004 137.467 56.6312L137.752 57.9969C137.324 58.274 136.802 58.4126 136.184 58.4126Z" fill="white"/>
<path d="M141.104 58.4126C140.597 58.4126 140.138 58.282 139.726 58.0207C139.323 57.7515 138.998 57.3794 138.753 56.9043C138.515 56.4214 138.396 55.8632 138.396 55.2298C138.396 54.5964 138.515 54.0422 138.753 53.5671C138.99 53.0842 139.315 52.7081 139.726 52.4389C140.138 52.1697 140.597 52.0351 141.104 52.0351C141.532 52.0351 141.916 52.142 142.256 52.3558C142.596 52.5616 142.846 52.8427 143.004 53.199L143.135 52.1776H144.406V58.282H143.135L143.016 57.2844C142.85 57.6248 142.596 57.898 142.256 58.1038C141.916 58.3097 141.532 58.4126 141.104 58.4126ZM141.437 57.0468C141.872 57.0468 142.232 56.8806 142.517 56.5481C142.802 56.2076 142.945 55.7682 142.945 55.2298C142.945 54.6914 142.802 54.252 142.517 53.9116C142.232 53.5711 141.872 53.4009 141.437 53.4009C140.993 53.4009 140.629 53.5711 140.344 53.9116C140.067 54.252 139.928 54.6914 139.928 55.2298C139.928 55.7682 140.067 56.2076 140.344 56.5481C140.629 56.8806 140.993 57.0468 141.437 57.0468Z" fill="white"/>
<path d="M146.761 51.4413C146.499 51.4413 146.278 51.3542 146.096 51.18C145.921 50.9979 145.834 50.7802 145.834 50.5269C145.834 50.2814 145.921 50.0716 146.096 49.8974C146.278 49.7153 146.499 49.6243 146.761 49.6243C147.022 49.6243 147.24 49.7153 147.414 49.8974C147.596 50.0716 147.687 50.2814 147.687 50.5269C147.687 50.7802 147.596 50.9979 147.414 51.18C147.24 51.3542 147.022 51.4413 146.761 51.4413ZM146.024 58.282V52.1776H147.509V58.282H146.024Z" fill="white"/>
<path d="M149.109 58.282V52.1776H150.38L150.499 53.1871C150.689 52.8308 150.954 52.5498 151.295 52.3439C151.635 52.138 152.015 52.0351 152.435 52.0351C153.092 52.0351 153.61 52.2766 153.99 52.7596C154.378 53.2425 154.572 53.9313 154.572 54.826V58.282H153.088V54.921C153.088 54.4381 152.985 54.0699 152.779 53.8165C152.581 53.5553 152.304 53.4246 151.948 53.4246C151.544 53.4246 151.215 53.5869 150.962 53.9116C150.717 54.2362 150.594 54.6281 150.594 55.0873V58.282H149.109Z" fill="white"/>
<path d="M156.056 58.282V52.1776H157.327L157.446 53.1752C157.628 52.8269 157.881 52.5498 158.206 52.3439C158.531 52.138 158.891 52.0351 159.287 52.0351C159.714 52.0351 160.082 52.1499 160.391 52.3795C160.708 52.6091 160.945 52.9377 161.104 53.3652C161.302 52.9535 161.575 52.6289 161.923 52.3914C162.279 52.1539 162.675 52.0351 163.111 52.0351C163.752 52.0351 164.255 52.2766 164.619 52.7596C164.991 53.2346 165.177 53.9234 165.177 54.826V58.282H163.693V54.921C163.693 54.4381 163.598 54.0699 163.408 53.8165C163.226 53.5553 162.972 53.4246 162.648 53.4246C162.26 53.4246 161.947 53.5869 161.709 53.9116C161.472 54.2362 161.353 54.632 161.353 55.0992V58.282H159.869V54.921C159.869 54.4301 159.774 54.058 159.584 53.8047C159.401 53.5513 159.148 53.4246 158.824 53.4246C158.436 53.4246 158.123 53.5869 157.885 53.9116C157.656 54.2282 157.541 54.6241 157.541 55.0992V58.282H156.056Z" fill="white"/>
<path d="M169.388 58.4364C168.755 58.4364 168.208 58.3057 167.749 58.0444C167.29 57.7832 166.934 57.411 166.68 56.9281C166.435 56.4451 166.312 55.879 166.312 55.2298C166.312 54.6043 166.435 54.0501 166.68 53.5671C166.934 53.0842 167.278 52.7041 167.713 52.427C168.149 52.1499 168.644 52.0114 169.198 52.0114C169.752 52.0114 170.239 52.146 170.659 52.4152C171.078 52.6844 171.407 53.0604 171.644 53.5434C171.882 54.0184 172.001 54.5727 172.001 55.206V55.6336H167.82C167.939 56.6629 168.505 57.1775 169.519 57.1775C170.192 57.1775 170.785 56.8766 171.3 56.2749L171.941 57.3794C171.617 57.7198 171.233 57.9811 170.789 58.1632C170.346 58.3453 169.879 58.4364 169.388 58.4364ZM169.186 53.2109C168.822 53.2109 168.521 53.3336 168.284 53.579C168.054 53.8245 167.903 54.1728 167.832 54.6241H170.528C170.473 54.1728 170.326 53.8245 170.089 53.579C169.859 53.3336 169.558 53.2109 169.186 53.2109Z" fill="white"/>
<path d="M173.198 58.282V52.1776H174.469L174.587 53.1871C174.777 52.8308 175.043 52.5498 175.383 52.3439C175.724 52.138 176.104 52.0351 176.523 52.0351C177.18 52.0351 177.699 52.2766 178.079 52.7596C178.467 53.2425 178.661 53.9313 178.661 54.826V58.282H177.176V54.921C177.176 54.4381 177.073 54.0699 176.868 53.8165C176.67 53.5553 176.393 53.4246 176.036 53.4246C175.633 53.4246 175.304 53.5869 175.051 53.9116C174.805 54.2362 174.682 54.6281 174.682 55.0873V58.282H173.198Z" fill="white"/>
<path d="M182.39 58.4126C181.075 58.4126 180.418 57.6565 180.418 56.1443V53.4603H179.444V52.1776H180.418V50.6575H181.903V52.1776H183.862V53.4603H181.903V56.073C181.903 56.7143 182.148 57.035 182.639 57.035C182.979 57.035 183.324 56.9004 183.672 56.6312L183.957 57.9969C183.53 58.274 183.007 58.4126 182.39 58.4126Z" fill="white"/>
<defs>
<clipPath id="clip0_6839_5904">
<rect width="180.791" height="44.5023" fill="white" transform="translate(1.59607 0.364014)"/>
</clipPath>
</defs>
</svg>
