<svg width="24" height="24" viewBox="0 0 24 24" fill="none" xmlns="http://www.w3.org/2000/svg">
<path d="M17.7945 6.30839C16.7708 5.64117 16.0325 4.57314 15.8019 3.32878C15.7523 3.05999 15.7247 2.78309 15.7247 2.5H12.4581L12.4529 15.5908C12.3981 17.0568 11.1914 18.2335 9.71254 18.2335C9.25264 18.2335 8.8199 18.1186 8.43863 17.918C7.56458 17.4581 6.96646 16.5421 6.96646 15.4879C6.96646 13.9738 8.19843 12.7418 9.71207 12.7418C9.99468 12.7418 10.2659 12.7885 10.5223 12.8686V9.53391C10.2568 9.49769 9.98706 9.47529 9.71207 9.47529C6.39694 9.47529 3.69995 12.1723 3.69995 15.4879C3.69995 17.5219 4.71603 19.322 6.26684 20.4105C7.24336 21.0963 8.43148 21.5 9.71254 21.5C13.0277 21.5 15.7247 18.803 15.7247 15.4879V8.84954C17.0057 9.76887 18.5756 10.3107 20.2694 10.3107V7.04423C19.3572 7.04423 18.5074 6.77306 17.7945 6.30839Z" fill="white"/>
</svg>
