<svg width="24" height="24" viewBox="0 0 24 24" fill="none" xmlns="http://www.w3.org/2000/svg">
<path fill-rule="evenodd" clip-rule="evenodd" d="M2.16696 8.16354C2.27204 7.28348 2.8999 5.47609 4.57068 5.28695C5.46387 5.16873 8.25114 4.94806 12.2547 5.01111C13.6208 4.99797 16.873 5.03475 18.9536 5.28695C19.768 5.30008 21.4519 5.8071 21.6726 7.73008C21.8302 9.17494 22.0982 12.5769 21.909 14.626C21.9222 15.887 21.4125 18.4641 19.2689 18.6848C18.5202 18.7898 16.1953 19 12.8852 19C10.8361 19 6.13902 18.9685 5.79225 18.8424C4.64949 18.8555 2.7738 18.4562 2.36399 16.7539C2.14069 15.0857 1.78867 11.0322 2.16696 8.16354ZM9.89042 15.0572L15.2101 11.9859L9.89043 8.91451L9.89042 15.0572Z" fill="white"/>
</svg>
